<!DOCTYPE svg PUBLIC "-//W3C//DTD SVG 1.1//EN" "http://www.w3.org/Graphics/SVG/1.1/DTD/svg11.dtd">
<!-- Uploaded to: SVG Repo, www.svgrepo.com, Transformed by: SVG Repo Mixer Tools -->
<svg width="800px" height="800px" viewBox="0 0 24 24" xmlns="http://www.w3.org/2000/svg" fill="#e01b24">
<g id="SVGRepo_bgCarrier" stroke-width="0"/>
<g id="SVGRepo_tracerCarrier" stroke-linecap="round" stroke-linejoin="round"/>
<g id="SVGRepo_iconCarrier">
<path d="M6 5v16a2.006 2.006 0 0 0 2 2h8a2.006 2.006 0 0 0 2-2V5a2.006 2.006 0 0 0-2-2h-1V2a1.003 1.003 0 0 0-1-1h-4a1.003 1.003 0 0 0-1 1v1H8a2.006 2.006 0 0 0-2 2zm1 0a1 1 0 0 1 1-1h2V2h4v2h2a1 1 0 0 1 1 1v16a1 1 0 0 1-1 1H8a1 1 0 0 1-1-1zm9 16H8v-3h8z"/>
<path fill="none" d="M0 0h24v24H0z"/>
</g>
</svg>